<svg width="20" height="20" viewBox="0 0 20 20" fill="none" xmlns="http://www.w3.org/2000/svg">
<path d="M19 10.0421C18.9889 12.0833 18.297 14.0622 17.0344 15.6641C16.1805 16.7126 15.1032 17.5564 13.8816 18.1336C12.6599 18.7108 11.3249 19.0068 9.97425 18.9999C8.70039 18.9924 7.44197 18.7198 6.27874 18.1995L2.54935 18.8673C2.36197 18.8881 2.17233 18.8649 1.99541 18.7997C1.81849 18.7344 1.65911 18.6289 1.52986 18.4914C1.4006 18.3539 1.305 18.1882 1.2506 18.0073C1.1962 17.8265 1.18449 17.6354 1.21638 17.4492L1.73278 13.6284C1.24277 12.4963 0.993268 11.2744 1.00014 10.0404C0.997878 8.07569 1.63575 6.1639 2.81685 4.59554C3.99794 3.02718 5.65769 1.88798 7.54393 1.35102C8.33818 1.11356 9.16316 0.995319 9.992 1.00014C12.3831 1.00357 14.675 1.95804 16.3641 3.65379C18.0532 5.34955 19.0013 7.64786 19 10.0437" stroke="black" stroke-width="1.5" stroke-linecap="round" stroke-linejoin="round"/>
</svg>
