<svg width="32" height="32" viewBox="0 0 32 32" fill="none" xmlns="http://www.w3.org/2000/svg">
<circle cx="16" cy="16" r="16" fill="white"/>
<path d="M13.682 21.9359C13.4984 22.1197 13.2804 22.2656 13.0405 22.3651C12.8006 22.4646 12.5434 22.5159 12.2836 22.516H9.48193V19.7324C9.48193 19.2081 9.69049 18.7048 10.0612 18.334M13.682 21.9359L10.0612 18.334M13.682 21.9359L20.9045 14.7104M10.0612 18.334L17.2911 11.0962L18.3237 10.0622C18.5074 9.87814 18.7257 9.73213 18.9659 9.63248C19.2061 9.53284 19.4636 9.48151 19.7237 9.48145C19.9837 9.48138 20.2413 9.53257 20.4815 9.63209C20.7218 9.73161 20.9401 9.87751 21.1239 10.0614L21.9393 10.8776C22.3105 11.2487 22.519 11.7521 22.519 12.277C22.519 12.8018 22.3105 13.3052 21.9393 13.6764L20.9045 14.7104M20.9045 14.7104L17.2903 11.0962" stroke="#9601CC" stroke-linecap="round" stroke-linejoin="round"/>
</svg>
