<svg width="20" height="19" viewBox="0 0 20 19" fill="none" xmlns="http://www.w3.org/2000/svg">
<path d="M11.8 15.7272C15.1939 15.7272 16.8913 15.7272 17.9452 14.6484C18.9991 13.5696 19 11.8346 19 8.36358C19 4.89257 19 3.15661 17.9452 2.07876C16.8904 1.00092 15.1939 1 11.8 1H8.2C4.8061 1 3.1087 1 2.0548 2.07876C1.0009 3.15753 1 4.89257 1 8.36358C1 11.8346 1 13.5706 2.0548 14.6484C2.6425 15.2504 3.43 15.5164 4.6 15.6333" stroke="black" stroke-width="1.5" stroke-linecap="round" stroke-linejoin="round"/>
<path d="M11.8003 15.7272C10.6879 15.7272 9.46211 16.1874 8.34341 16.7811C6.54521 17.7356 5.64611 18.2133 5.20331 17.9086C4.76051 17.604 4.84421 16.6614 5.01251 14.7754L5.05031 14.3465M8.09141 6.41132L10.0003 8.36359M10.0003 8.36359L11.9092 10.3159M10.0003 8.36359L11.9092 6.41132M10.0003 8.36359L8.09141 10.3159" stroke="black" stroke-width="1.5" stroke-linecap="round"/>
</svg>
