<svg width="20" height="20" viewBox="0 0 20 20" fill="none" xmlns="http://www.w3.org/2000/svg">
<path d="M9.43286 2.11164C9.83271 2.48405 10.0633 2.98534 10.0768 3.51163C10.0903 4.03793 9.88569 4.54889 9.50539 4.93864L6.25922 8.26133C5.86684 8.66296 5.22078 8.66289 4.82849 8.26118L1.58378 4.93864C1.38278 4.73597 1.22782 4.49762 1.12818 4.23789C1.02854 3.97815 0.986266 3.70237 1.0039 3.42707C1.02154 3.15177 1.09872 2.88262 1.23081 2.63574C1.36291 2.38886 1.5472 2.16933 1.77265 1.99032C1.9981 1.81131 2.26006 1.67649 2.54285 1.59394C2.82563 1.51139 3.12341 1.48281 3.41835 1.50992C3.71328 1.53703 3.9993 1.61927 4.25926 1.7517C4.51923 1.88413 4.74779 2.06404 4.93124 2.28064L5.54432 2.99314L6.15686 2.28064C6.3504 2.0558 6.59269 1.87144 6.86793 1.73959C7.14318 1.60774 7.4452 1.53135 7.7543 1.5154C8.0634 1.49945 8.37264 1.54431 8.66187 1.64704C8.95109 1.74978 9.21379 1.90808 9.43286 2.11164Z" stroke="black" stroke-width="1.5" stroke-linecap="round" stroke-linejoin="round"/>
<path d="M1 18V13.5C1 13.2348 1.11322 12.9804 1.31475 12.7929C1.51628 12.6054 1.78962 12.5 2.07463 12.5H2.57433C2.7512 12.5 2.92535 12.4594 3.08132 12.3818C3.23729 12.3042 3.37025 12.1919 3.46842 12.055L3.90472 11.445C4.00288 11.3081 4.13585 11.1958 4.29182 11.1182C4.44778 11.0406 4.62193 11 4.79881 11H6.87284C7.04971 11 7.22386 11.0406 7.37983 11.1182C7.53579 11.1958 7.66876 11.3081 7.76692 11.445L8.20322 12.055C8.30139 12.1919 8.43435 12.3042 8.59032 12.3818C8.74629 12.4594 8.92044 12.5 9.09731 12.5H9.59701C9.88202 12.5 10.1554 12.6054 10.3569 12.7929C10.5584 12.9804 10.6716 13.2348 10.6716 13.5V18C10.6716 18.2652 10.5584 18.5196 10.3569 18.7071C10.1554 18.8946 9.88202 19 9.59701 19H2.07463C1.78962 19 1.51628 18.8946 1.31475 18.7071C1.11322 18.5196 1 18.2652 1 18Z" stroke="black" stroke-width="1.5" stroke-linecap="round" stroke-linejoin="round"/>
<path d="M5.83582 17C6.72607 17 7.44776 16.3284 7.44776 15.5C7.44776 14.6716 6.72607 14 5.83582 14C4.94557 14 4.22388 14.6716 4.22388 15.5C4.22388 16.3284 4.94557 17 5.83582 17Z" stroke="black" stroke-width="1.5" stroke-linecap="round" stroke-linejoin="round"/>
<path d="M18.5828 5.4015V7.2765C18.5827 7.52094 18.4971 7.75872 18.3389 7.95386C18.1807 8.14899 17.9585 8.29086 17.7059 8.358L16.9966 8.5465C16.8736 8.58108 16.7445 8.59255 16.6167 8.58025C16.4889 8.56795 16.365 8.53213 16.2523 8.47485C16.1395 8.41758 16.0401 8.34001 15.9599 8.24665C15.8796 8.1533 15.8201 8.04602 15.7848 7.93107C15.7496 7.81612 15.7392 7.69578 15.7544 7.57707C15.7696 7.45836 15.81 7.34364 15.8732 7.23959C15.9365 7.13555 16.0214 7.04425 16.1229 6.97101C16.2244 6.89777 16.3406 6.84406 16.4647 6.813L17.7059 6.483C17.9585 6.41586 18.1807 6.27399 18.3389 6.07886C18.4971 5.88372 18.5827 5.64595 18.5828 5.4015ZM18.5828 5.4015V1L12.941 2.75V6.9015M12.941 6.9015V8.7765C12.9409 9.02094 12.8553 9.25872 12.6971 9.45386C12.5389 9.64899 12.3167 9.79086 12.0641 9.858L11.3548 10.0465C11.1092 10.108 10.8474 10.0771 10.626 9.96057C10.4047 9.84401 10.2414 9.65109 10.1716 9.42349C10.1017 9.19588 10.1309 8.95185 10.2527 8.74408C10.3746 8.53631 10.5794 8.38147 10.8229 8.313L12.0641 7.983C12.3167 7.91586 12.5389 7.77399 12.6971 7.57886C12.8553 7.38372 12.9409 7.14595 12.941 6.9015Z" stroke="black" stroke-width="1.5" stroke-linecap="round" stroke-linejoin="round"/>
<path d="M18.194 10.5L14.4285 13.6147C14.0674 13.9134 14.2786 14.5 14.7472 14.5H17.7831C18.23 14.5 18.4524 15.0414 18.1347 15.3556L14.7015 18.75" stroke="black" stroke-width="1.5" stroke-linecap="round"/>
</svg>
