<svg width="8" height="14" viewBox="0 0 8 14" fill="none" xmlns="http://www.w3.org/2000/svg">
<path d="M1.13452 12.8588C1.04891 12.7665 1.00098 12.6425 1.00098 12.5135C1.00098 12.3844 1.04891 12.2605 1.13452 12.1681L5.91646 7.00053L1.13452 1.83293H1.13354C1.04793 1.7406 1 1.61666 1 1.48759C1 1.35853 1.04793 1.23459 1.13354 1.14226L1.13452 12.8588ZM1.13452 12.8588C1.1761 12.9035 1.22573 12.939 1.28051 12.9633C1.33528 12.9875 1.3941 13 1.45351 13C1.51293 13 1.57174 12.9875 1.62652 12.9633C1.68129 12.939 1.73092 12.9035 1.7725 12.8588H1.13452ZM0.949947 0.972569C0.820472 1.11235 0.75 1.29737 0.75 1.48759C0.75 1.67795 0.820571 1.86309 0.950217 2.00291L1.02441 2.08293H1.02525L5.57584 7.00053L0.951199 11.9982C0.951157 11.9982 0.951115 11.9982 0.951073 11.9983C0.951058 11.9983 0.951043 11.9983 0.951028 11.9983C0.821491 12.1381 0.750981 12.3232 0.750981 12.5135C0.750981 12.7038 0.821553 12.889 0.951199 13.0288L0.951199 13.0288L0.951463 13.0291C1.01564 13.0981 1.09298 13.1537 1.17931 13.1919C1.26569 13.2301 1.35895 13.25 1.45351 13.25C1.54807 13.25 1.64133 13.2301 1.72771 13.1919C1.81405 13.1537 1.89138 13.0981 1.95556 13.0291L1.95598 13.0286L7.04415 7.53119L7.04417 7.53116C7.17742 7.38715 7.25 7.19656 7.25 7.00053C7.25 6.8045 7.17742 6.6139 7.04417 6.46989L7.04416 6.46989L1.95708 0.972569L1.95698 0.972461L1.77349 1.14226L0.949947 0.972569Z" fill="black" stroke="black" stroke-width="0.5"/>
</svg>
