<svg width="18" height="20" viewBox="0 0 18 20" fill="none" xmlns="http://www.w3.org/2000/svg">
<path d="M15 7.939V7.3045C15 3.8224 12.312 1 9 1C5.68802 1 3.00004 3.8224 3.00004 7.3045V7.939C3.00111 8.6964 2.78764 9.43822 2.38493 10.0765L1.40005 11.629C0.501392 13.0465 1.18761 14.9734 2.75115 15.4216C6.83671 16.5931 11.1633 16.5931 15.2488 15.4216C16.8124 14.9734 17.4986 13.0465 16.5999 11.6299L15.6151 10.0774C15.212 9.43922 14.9983 8.69739 14.9991 7.9399L15 7.939Z" stroke="black" stroke-width="1.5"/>
<path d="M5.00049 16.3C5.58271 17.8732 7.15336 19 9.00046 19C10.8476 19 12.4182 17.8732 13.0004 16.3" stroke="black" stroke-width="1.5" stroke-linecap="round"/>
</svg>
