<svg width="24" height="24" viewBox="0 0 24 24" fill="none" xmlns="http://www.w3.org/2000/svg">
<path d="M8.24102 0.657856C10.9181 -0.242759 13.8291 -0.217988 16.4898 0.728047C17.951 1.26409 19.2898 2.07769 20.4293 3.12213C20.0422 3.5281 19.6337 3.90751 19.2388 4.3021C18.4876 5.0369 17.7372 5.76916 16.9873 6.49889C16.2398 5.79838 15.3356 5.27869 14.3468 4.98125C13.0815 4.60685 11.7353 4.58121 10.4561 4.90715C9.17686 5.2331 8.01396 5.89802 7.09497 6.82898C6.29281 7.62866 5.68532 8.59555 5.31783 9.6575L1.30475 6.61272C2.74119 3.82132 5.2283 1.68611 8.24102 0.657856Z" fill="#E33629"/>
<path d="M0.240044 9.62908C0.455743 8.58152 0.813847 7.56703 1.30478 6.61276L5.31787 9.66513C4.79288 11.1801 4.79288 12.8226 5.31787 14.3376C3.98082 15.3493 2.64312 16.3662 1.30478 17.388C0.0757856 14.9908 -0.299036 12.2594 0.240044 9.62908Z" fill="#F8BD00"/>
<path d="M12.2445 9.75235H23.7668C24.161 11.8712 24.0543 14.0505 23.4552 16.1227C22.9039 18.0282 21.833 19.7505 20.3577 21.1043C19.0626 20.1141 17.7617 19.1314 16.4666 18.1411C17.1087 17.7167 17.6567 17.1696 18.0779 16.5327C18.499 15.8957 18.7846 15.182 18.9174 14.4343H12.2445C12.2425 12.8749 12.2445 11.3136 12.2445 9.75235Z" fill="#587DBD"/>
<path d="M1.30286 17.388C2.6412 16.3762 3.97889 15.3594 5.31594 14.3375C5.83322 15.8252 6.81704 17.1146 8.12684 18.0216C8.9438 18.5874 9.8721 18.9803 10.8526 19.175C11.8187 19.3511 12.8096 19.3511 13.7758 19.175C14.739 19.0152 15.6576 18.6598 16.4724 18.1316C17.7675 19.1219 19.0685 20.1046 20.3636 21.0948C18.9463 22.3578 17.2186 23.2383 15.3496 23.6502C13.2868 24.1254 11.137 24.1026 9.08511 23.5838C7.46226 23.1592 5.94641 22.4106 4.63258 21.3851C3.24196 20.3032 2.10616 18.9397 1.30286 17.388Z" fill="#319F43"/>
</svg>
