<svg width="16" height="20" viewBox="0 0 16 20" fill="none" xmlns="http://www.w3.org/2000/svg">
<path d="M15 8.49639V16.9231C15 17.4739 14.7788 18.0022 14.3849 18.3917C13.9911 18.7812 13.457 19 12.9 19H3.1C2.54305 19 2.0089 18.7812 1.61508 18.3917C1.22125 18.0022 1 17.4739 1 16.9231V3.07692C1 2.52609 1.22125 1.99782 1.61508 1.60832C2.0089 1.21882 2.54305 1 3.1 1H7.42031C7.79149 1.00006 8.14745 1.14589 8.40994 1.40543L14.5901 7.51764C14.8525 7.77725 14.9999 8.1293 15 8.49639Z" stroke="black" stroke-width="1.5" stroke-linejoin="round"/>
<path d="M8.00098 1.34613V6.53844C8.00098 6.90566 8.14848 7.25784 8.41103 7.51751C8.67358 7.77717 9.02967 7.92305 9.40098 7.92305H14.651" stroke="black" stroke-width="1.5" stroke-linecap="round" stroke-linejoin="round"/>
</svg>
