<svg width="282" height="282" viewBox="0 0 282 282" fill="none" xmlns="http://www.w3.org/2000/svg">
<path d="M188.949 165.591C145.474 146.971 112.79 160.064 102.493 165.344C100.453 166.397 99.4007 168.684 99.9435 170.921L106.03 195.857C106.49 197.765 108.086 200.002 109.994 199.558C144.339 191.548 150.705 193.669 182.402 199.575C184.409 199.953 186.037 197.749 186.465 195.758L191.86 171.233C192.37 168.914 191.136 166.545 188.949 165.608V165.591Z" fill="white"/>
<path d="M197.42 125.637C197.42 125.637 206.812 114.896 197.42 103.003C188.472 91.6533 176.25 97.1801 172.22 99.0388C172.22 99.0388 172.171 92.2619 164.621 88.7747C159.85 86.5706 152.119 85.8633 147.596 94.1864C147.596 94.1864 135.605 76.3887 111.984 84.5144C101.934 87.9687 95.6668 97.1308 95.272 108.168C95.272 108.168 66.322 107.346 71.8817 138.417C73.1976 145.803 78.8725 153.55 91.9165 158.107C94.8444 159.127 98.0355 158.913 100.815 157.548C112.182 151.971 147.728 138.335 192.057 158.6C193.636 159.324 195.397 159.505 197.074 159.061C199.821 158.321 204.049 156.659 207.289 152.925C213.096 146.247 213.096 132.611 197.42 125.637Z" fill="white"/>
<path d="M141 259.712C206.563 259.712 259.712 206.563 259.712 141C259.712 75.4374 206.563 22.2883 141 22.2883C75.4374 22.2883 22.2883 75.4374 22.2883 141C22.2883 206.563 75.4374 259.712 141 259.712Z" stroke="white" stroke-width="6" stroke-miterlimit="10"/>
</svg>
