<svg width="16" height="20" viewBox="0 0 16 20" fill="none" xmlns="http://www.w3.org/2000/svg">
<path d="M10.1429 13.375L6.71428 10M6.71428 10L10.1429 6.625M6.71428 10H15M13.5714 4.65513V4.6C13.5714 3.34 13.5714 2.71 13.3223 2.2285C13.1029 1.80437 12.7543 1.46125 12.3234 1.24525C11.8343 1 11.1943 1 9.91429 1H4.65714C3.37714 1 2.73714 1 2.24914 1.24525C1.81829 1.46125 1.46857 1.80437 1.24914 2.2285C1 2.70888 1 3.33888 1 4.59663V15.4045C1 16.6623 1 17.2911 1.24914 17.7715C1.46858 18.195 1.81865 18.5392 2.24914 18.7547C2.73714 19 3.376 19 4.65371 19H9.91771C11.1954 19 11.8354 19 12.3234 18.7547C12.7535 18.539 13.1031 18.1948 13.3223 17.7715C13.5714 17.29 13.5714 16.66 13.5714 15.4V15.3438" stroke="#FF3B30" stroke-width="1.5" stroke-linecap="round" stroke-linejoin="round"/>
</svg>
