<svg width="20" height="20" viewBox="0 0 20 20" fill="none" xmlns="http://www.w3.org/2000/svg">
<path d="M17.2 19H2.8C2.32261 19 1.86477 18.8104 1.52721 18.4728C1.18964 18.1352 1 17.6774 1 17.2V2.8C1 2.32261 1.18964 1.86477 1.52721 1.52721C1.86477 1.18964 2.32261 1 2.8 1H13.6C14.0774 1 14.5352 1.18964 14.8728 1.52721C15.2104 1.86477 15.4 2.32261 15.4 2.8V17.2C15.4 17.6774 15.5896 18.1352 15.9272 18.4728C16.2648 18.8104 16.7226 19 17.2 19ZM17.2 19C17.6774 19 18.1352 18.8104 18.4728 18.4728C18.8104 18.1352 19 17.6774 19 17.2V9.1C19 8.11 18.19 7.3 17.2 7.3H15.4M4.6 11.8H11.8M7.3 15.4H11.8" stroke="black" stroke-width="1.5" stroke-linecap="round" stroke-linejoin="round"/>
<path d="M11.7998 4.59998H4.5998V8.19998H11.7998V4.59998Z" stroke="black" stroke-width="1.5" stroke-linecap="round" stroke-linejoin="round"/>
</svg>
