<svg width="20" height="20" viewBox="0 0 20 20" fill="none" xmlns="http://www.w3.org/2000/svg">
<path d="M10.0004 7.75L9.51799 8.2216C9.58084 8.28583 9.65589 8.33685 9.73873 8.37168C9.82156 8.40652 9.91052 8.42446 10.0004 8.42446C10.0902 8.42446 10.1792 8.40652 10.262 8.37168C10.3449 8.33685 10.4199 8.28583 10.4828 8.2216L10.0004 7.75ZM8.66389 12.1339C8.14009 11.6893 7.61449 11.1727 7.22479 10.6399C6.82789 10.0954 6.62539 9.6058 6.62539 9.1981H5.27539C5.27539 10.0225 5.66689 10.7947 6.13489 11.4355C6.61099 12.088 7.22389 12.6811 7.78909 13.1626L8.66389 12.1339ZM6.62539 9.1981C6.62539 8.2018 7.07089 7.678 7.52809 7.5061C7.99429 7.3324 8.73589 7.4251 9.51799 8.2234L10.4828 7.2793C9.44239 6.21731 8.15989 5.82851 7.05559 6.2416C5.94409 6.6574 5.27539 7.786 5.27539 9.1981H6.62539ZM12.2117 13.1635C12.7769 12.6829 13.3898 12.0889 13.8659 11.4373C14.3339 10.7956 14.7254 10.0234 14.7254 9.199H13.3754C13.3754 9.6067 13.1729 10.0963 12.776 10.6408C12.3863 11.1745 11.8607 11.6902 11.3378 12.1348L12.2117 13.1635ZM14.7254 9.199C14.7254 7.786 14.0567 6.6574 12.9452 6.2416C11.8409 5.82851 10.5584 6.21641 9.51799 7.2793L10.4828 8.2243C11.2649 7.4251 12.0074 7.3324 12.4718 7.5061C12.9308 7.6771 13.3754 8.2027 13.3754 9.199H14.7254ZM7.78909 13.1635C8.49109 13.7602 9.04909 14.2705 10.0004 14.2705V12.9205C9.62779 12.9205 9.44509 12.799 8.66389 12.1339L7.78909 13.1635ZM11.3378 12.1348C10.5557 12.7999 10.373 12.9205 10.0004 12.9205V14.2705C10.9517 14.2705 11.5106 13.7602 12.2117 13.1635L11.3378 12.1348Z" fill="black"/>
<path d="M14.5 2.20421C13.1325 1.41286 11.58 0.997407 9.99999 1.00001C5.0293 1.00001 1 5.02931 1 10C1 11.44 1.3384 12.8008 1.9387 14.0077C2.0989 14.3281 2.152 14.6944 2.0593 15.0409L1.5238 17.0443C1.47076 17.2426 1.47081 17.4513 1.52394 17.6495C1.57707 17.8478 1.68141 18.0285 1.82648 18.1737C1.97156 18.3189 2.15227 18.4233 2.35047 18.4766C2.54868 18.5298 2.7574 18.53 2.9557 18.4771L4.9591 17.9407C5.30684 17.8528 5.67472 17.8954 5.9932 18.0604C7.23785 18.6801 8.6096 19.0018 9.99999 19C14.9707 19 19 14.9707 19 10C19 8.3611 18.5617 6.82301 17.7958 5.50001" stroke="black" stroke-width="1.5" stroke-linecap="round"/>
</svg>
