<svg width="20" height="20" viewBox="0 0 20 20" fill="none" xmlns="http://www.w3.org/2000/svg">
<path d="M10 2.8V1M10 17.2V19M4.9726 4.9726L3.7 3.7M15.1552 15.1552L16.4278 16.4278M2.8 10H1M17.2 10H19M15.1561 4.9726L16.4287 3.7M4.9735 15.1552L3.7 16.4278M10 14.5C8.80653 14.5 7.66193 14.0259 6.81802 13.182C5.97411 12.3381 5.5 11.1935 5.5 10C5.5 8.80653 5.97411 7.66193 6.81802 6.81802C7.66193 5.97411 8.80653 5.5 10 5.5C11.1935 5.5 12.3381 5.97411 13.182 6.81802C14.0259 7.66193 14.5 8.80653 14.5 10C14.5 11.1935 14.0259 12.3381 13.182 13.182C12.3381 14.0259 11.1935 14.5 10 14.5Z" stroke="black" stroke-width="1.5" stroke-linecap="round" stroke-linejoin="round"/>
</svg>
